<?xml version="1.0" encoding="utf-8"?>
<!-- Generator: Adobe Illustrator 16.0.0, SVG Export Plug-In . SVG Version: 6.00 Build 0)  -->
<!DOCTYPE svg PUBLIC "-//W3C//DTD SVG 1.1//EN" "http://www.w3.org/Graphics/SVG/1.1/DTD/svg11.dtd">
<svg version="1.1" id="Layer_1" xmlns="http://www.w3.org/2000/svg" xmlns:xlink="http://www.w3.org/1999/xlink" x="0px" y="0px"
	 width="841.889px" height="595.281px" viewBox="0 0 841.889 595.281" enable-background="new 0 0 841.889 595.281"
	 xml:space="preserve">
<g>
	<path fill="#FFFFFF" d="M421.695,76.471c-91.466,0-164.939,73.474-164.939,164.939c0,49.481,22.492,97.464,62.977,128.952v136.45
		c0,5.998,4.499,11.995,11.996,11.995h1.611c7.67,31.301,42.048,76.473,86.856,76.473c46.126,0,80.664-45.172,86.316-76.473h3.65
		c5.998,0,11.996-4.498,13.495-11.995v-136.45c38.985-29.988,62.977-77.971,62.977-128.952
		C586.633,149.945,513.16,76.471,421.695,76.471z M496.666,455.327l-148.444-24.985c-0.508-0.102-1.007-0.171-1.5-0.218V405.6
		l148.445,24.741h1.499V455.327z M346.722,456.337l148.445,24.986h1.499v13.494h-1.499H346.722V456.337z M496.666,405.821
		l-73.473-12.966h73.473V405.821z M420.195,569.79c-28.489,0-52.48-29.989-59.978-50.981h119.956
		C472.675,539.801,448.684,569.79,420.195,569.79z M502.664,353.87c-4.498,2.999-5.998,5.997-5.998,10.496v4.498H346.722v-4.498
		c0-4.499-2.999-7.497-5.997-10.496c-37.486-25.491-58.479-67.476-58.479-112.459c0-76.472,62.977-139.448,139.448-139.448
		s139.448,62.977,139.448,139.448C561.143,284.895,538.651,328.379,502.664,353.87z"/>
	<path fill="#FFFFFF" d="M217.77,241.411h-50.981c-5.997,0-11.995,5.998-11.995,11.996c0,5.997,4.498,11.995,11.995,11.995h50.981
		c7.497,0,11.995-5.998,11.995-11.995C229.765,247.409,225.267,241.411,217.77,241.411z"/>
	<path fill="#FFFFFF" d="M673.602,241.411H622.62c-5.998,0-11.996,5.998-11.996,11.996c0,5.997,4.499,11.995,11.996,11.995h50.981
		c7.497,0,11.995-5.998,11.995-11.995C685.597,247.409,681.099,241.411,673.602,241.411z"/>
	<path fill="#FFFFFF" d="M333.227,68.974c2.999,4.499,7.498,7.497,11.996,7.497c1.499,0,2.999-1.499,4.498-1.499
		c5.998-2.999,8.997-10.496,5.998-16.494l-25.49-50.981C327.23,1.5,319.732-1.499,313.735,1.5
		c-5.998,2.999-8.997,10.496-5.998,16.493L333.227,68.974z"/>
	<path fill="#FFFFFF" d="M490.669,74.972c1.499,1.499,4.498,1.499,5.997,1.499c4.499,0,8.997-2.998,10.496-7.497l25.491-50.981
		c2.999-5.997,0-13.494-5.998-16.493s-13.495,0-16.494,5.997l-25.49,50.981C481.672,64.476,484.671,71.973,490.669,74.972z"/>
	<path fill="#FFFFFF" d="M249.258,127.453l-50.981-25.49c-5.997-2.999-13.495,0-16.493,5.997c-2.999,5.998-1.5,14.995,5.997,17.994
		l49.482,23.991c1.499,1.499,4.498,1.499,5.997,1.499c4.499,0,8.997-1.499,11.996-7.497S255.256,130.452,249.258,127.453z"/>
	<path fill="#FFFFFF" d="M660.107,107.96c-2.999-5.997-10.496-8.996-16.494-5.997l-50.981,25.49
		c-5.998,2.999-8.996,10.496-5.998,16.494c2.999,4.498,7.498,7.497,11.996,7.497c1.499,0,2.999,0,5.998,0l49.481-26.99
		C660.107,121.455,663.106,113.958,660.107,107.96z"/>
</g>
</svg>
