<?xml version="1.0" encoding="utf-8"?>
<!-- Generator: Adobe Illustrator 16.0.0, SVG Export Plug-In . SVG Version: 6.00 Build 0)  -->
<!DOCTYPE svg PUBLIC "-//W3C//DTD SVG 1.1//EN" "http://www.w3.org/Graphics/SVG/1.1/DTD/svg11.dtd">
<svg version="1.1" id="Layer_1" xmlns="http://www.w3.org/2000/svg" xmlns:xlink="http://www.w3.org/1999/xlink" x="0px" y="0px"
	 width="841.889px" height="595.281px" viewBox="0 0 841.889 595.281" enable-background="new 0 0 841.889 595.281"
	 xml:space="preserve">
<g>
	<path fill="#FFFFFF" d="M803.546,156.769H611.828V75.081c0-25.006-20.005-45.012-45.012-45.012H45.012
		C20.005,30.069,0,50.075,0,75.081v343.425c0,25.007,20.005,45.012,45.012,45.012h186.853l-15.988,75.021h-12.49
		c-8.335,0-13.337,6.668-13.337,13.337c0,8.335,6.669,13.337,13.337,13.337h23.34h153.374h28.341
		c6.668,0,13.337-5.002,11.669-13.337c0-8.336-6.668-13.337-13.337-13.337h-20.174l-16.53-75.021h88.385v63.351
		c0,21.672,16.671,38.344,38.344,38.344h306.748c21.672,0,38.343-16.672,38.343-38.344V195.113
		C841.889,173.44,825.218,156.769,803.546,156.769z M458.454,195.113v165.044H25.007v-253.4h560.147v50.013h-88.356
		C475.125,156.769,458.454,173.44,458.454,195.113z M25.007,75.081c0-11.669,8.335-20.005,20.005-20.005H565.15
		c11.67,0,20.005,8.336,20.005,20.005v5.002H25.007V75.081z M363.068,538.538H243.724l14.678-75.021h88.356L363.068,538.538z
		 M355.094,438.511H246.732H45.012c-11.67,0-20.005-8.336-20.005-20.006v-31.675h433.447v51.681H355.094z M816.883,528.535
		c0,8.336-6.669,13.337-13.337,13.337H496.798c-8.336,0-13.337-6.669-13.337-13.337V196.78c0-8.335,6.668-13.337,13.337-13.337
		v-1.667h306.748c8.335,0,13.337,6.669,13.337,13.337V528.535z"/>
	<path fill="#FFFFFF" d="M778.539,208.45H523.472c-8.336,0-13.337,6.668-13.337,13.337V450.18c0,8.336,6.668,13.337,13.337,13.337
		h255.067c6.668,0,11.67-5.001,13.337-11.669V221.787C791.876,213.451,785.207,208.45,778.539,208.45z M765.202,438.511H535.142
		V233.457h230.061V438.511z"/>
	<path fill="#FFFFFF" d="M663.509,488.524h-25.007c-8.336,0-13.337,6.669-13.337,13.337c0,8.336,6.668,13.337,13.337,13.337h25.007
		c6.668,0,13.337-6.668,13.337-13.337C676.846,493.526,670.177,488.524,663.509,488.524z"/>
</g>
</svg>
