<?xml version="1.0" encoding="utf-8"?>
<!-- Generator: Adobe Illustrator 16.0.0, SVG Export Plug-In . SVG Version: 6.00 Build 0)  -->
<!DOCTYPE svg PUBLIC "-//W3C//DTD SVG 1.1//EN" "http://www.w3.org/Graphics/SVG/1.1/DTD/svg11.dtd">
<svg version="1.1" id="Layer_1" xmlns="http://www.w3.org/2000/svg" xmlns:xlink="http://www.w3.org/1999/xlink" x="0px" y="0px"
	 width="841.889px" height="595.281px" viewBox="0 0 841.889 595.281" enable-background="new 0 0 841.889 595.281"
	 xml:space="preserve">
<g>
	<path fill="#009FE3" d="M838.86,302.264l-48.295-48.295l-61.405-110.214c-2.03-3.644-5.874-5.903-10.046-5.903h-7.634v-6.039
		c0-23.925-19.465-43.39-43.39-43.39c-21.672,0-39.685,15.973-42.885,36.763c-1.322,1.873-2.1,4.159-2.1,6.626v6.039h-4.106V98.329
		c0-6.351-5.148-11.5-11.5-11.5s-11.5,5.149-11.5,11.5v286.67H487.445c4.926-3.763,9.165-8.406,12.45-13.674h32.664
		c20.872,0,35.417-22.026,35.417-41.795v-35.079c0-20.124-16.508-35.925-49.064-46.966c-24.232-8.218-51.553-11.915-66.17-13.417
		c-31.658-41.776-98.11-67.515-175.301-67.515c-33.764,0-65.457,4.968-94.198,14.766c-25.446,8.675-47.63,21.026-64.515,35.88
		l-14.131-1.177l-0.955-0.04c-9.203,0-14.579,3.901-17.468,7.174c-6.956,7.879-6.401,19.005-5.193,28.95v75.829
		c0,2.815-1.402,7.233-2.64,11.131c-2.5,7.874-5.333,16.8,0.052,24.16c2.171,2.968,6.378,6.505,14.088,6.505h30.295v-5.832
		c4.339,8.725,11.179,16.092,19.511,21.1H11.161c-6.352,0-11.5,5.148-11.5,11.5s5.148,11.5,11.5,11.5h312.702
		c-6.028,7.558-10.299,16.575-12.189,26.429H11.161c-6.352,0-11.5,5.148-11.5,11.5s5.148,11.5,11.5,11.5h300.513
		c5.393,28.117,30.175,49.43,59.841,49.43c29.665,0,54.447-21.312,59.84-49.43h227.918c5.393,28.117,30.175,49.43,59.84,49.43
		c29.666,0,54.448-21.312,59.841-49.43h51.773c6.352,0,11.5-5.148,11.5-11.5V310.396
		C842.228,307.346,841.016,304.422,838.86,302.264z M647.7,131.813c0-11.243,9.146-20.39,20.39-20.39s20.39,9.147,20.39,20.39v4.445
		h-41.67C647.383,134.891,647.7,133.389,647.7,131.813z M430.85,345.475c0-13.702,11.911-25.381,27.199-26.764
		c14.079,0.25,26.336,12.648,26.336,26.764c0,14.26-12.508,26.768-26.768,26.768S430.85,359.735,430.85,345.475z M109.681,345.475
		c0,0.348,0,0.772,0.002,1.256l-9.644-0.001c0.077-0.243,0.152-0.479,0.223-0.705c1.743-5.489,3.718-11.711,3.718-18.09v-77.251
		l-0.089-0.71c-0.807-6.454-0.703-9.524-0.468-10.969l23.535,1.96l3.737-3.551c31.547-29.969,86.404-47.861,146.745-47.861
		c36.333,0,70.682,6.12,99.333,17.698c27.146,10.97,47.953,26.267,60.173,44.237l3.072,4.517l5.441,0.474
		c56.733,4.933,99.516,21.257,99.516,37.972v35.079c0,8.033-6.139,18.795-12.417,18.795h-17.233
		c-1.031-31.312-27.038-57.401-57.708-57.401c-30.146,0-55.788,25.211-57.634,55.808H225.125c0.023-0.454,0.036-0.876,0.036-1.256
		c0-32.163-26.442-59.335-57.74-59.335S109.681,313.312,109.681,345.475z M167.421,315.518c14.259,0,26.768,12.508,26.768,26.768
		s-12.508,26.768-26.768,26.768s-26.768-12.508-26.768-26.768S153.162,315.518,167.421,315.518z M371.516,483.857
		c-20.915,0-37.93-17.016-37.93-37.93s17.015-37.929,37.93-37.929c20.914,0,37.929,17.015,37.929,37.929
		S392.43,483.857,371.516,483.857z M192.516,384.999c6.415-3.85,11.957-9.079,16.146-15.268h205.725
		c3.402,5.928,7.991,11.13,13.41,15.268H192.516z M659.274,434.427H431.356c-1.89-9.854-6.16-18.871-12.188-26.429h182.485
		c1.714,1.013,3.712,1.595,5.847,1.595s4.133-0.582,5.847-1.595h58.116C665.434,415.556,661.163,424.574,659.274,434.427z
		 M719.114,483.857c-20.914,0-37.929-17.016-37.929-37.93s17.015-37.929,37.929-37.929s37.93,17.015,37.93,37.929
		S740.028,483.857,719.114,483.857z M819.228,434.427h-40.273c-1.89-9.854-6.16-18.871-12.188-26.429h52.462V434.427z
		 M819.228,384.999H719.114H618.999V160.852h93.357l58.896,105.711c0.518,0.929,1.162,1.782,1.914,2.535l46.061,46.062V384.999z"/>
	<path fill="#009FE3" d="M703.931,193.727c-1.93-3.944-5.938-6.445-10.329-6.445h-36.673c-6.352,0-11.5,5.149-11.5,11.5
		s5.148,11.5,11.5,11.5h29.497l33.521,68.496c1.995,4.078,6.084,6.447,10.338,6.447c1.696,0,3.419-0.377,5.046-1.173
		c5.705-2.792,8.066-9.68,5.274-15.385L703.931,193.727z"/>
	<path fill="#009FE3" d="M290.197,232.605c39.43,0,68.218,8.767,85.425,16.122c18.473,7.896,27.938,15.902,28.194,16.122
		c2.179,1.901,4.873,2.835,7.557,2.835c3.19,0,6.364-1.32,8.638-3.903c4.196-4.768,3.732-12.035-1.036-16.23
		c-1.761-1.549-44.093-37.945-128.778-37.945c-6.351,0-11.5,5.149-11.5,11.5S283.845,232.605,290.197,232.605z"/>
</g>
</svg>
