<?xml version="1.0" encoding="utf-8"?>
<!-- Generator: Adobe Illustrator 16.0.0, SVG Export Plug-In . SVG Version: 6.00 Build 0)  -->
<!DOCTYPE svg PUBLIC "-//W3C//DTD SVG 1.1//EN" "http://www.w3.org/Graphics/SVG/1.1/DTD/svg11.dtd">
<svg version="1.1" id="Layer_1" xmlns="http://www.w3.org/2000/svg" xmlns:xlink="http://www.w3.org/1999/xlink" x="0px" y="0px"
	 width="640px" height="480px" viewBox="100.945 57.64 640 480" enable-background="new 100.945 57.64 640 480"
	 xml:space="preserve">
<path fill="#009FE3" d="M566.253,459.708h-4.938c-5.918-30.229-21.93-57.065-45.854-77.571
	c-13.021-11.16-28.151-19.741-44.325-25.515v-20.658c0-11.954-6.688-21.998-16.627-26.696c0-0.028,0.004-0.056,0.004-0.084V115.256
	c0-17.545-13.852-32.321-32.32-32.321c-19.393,0-34.167,15.699-34.167,34.168v191.756c-10.442,4.503-17.546,14.786-17.546,27.104
	v20.864c-15.841,5.77-30.537,14.28-43.402,25.308c-23.925,20.507-39.934,47.342-45.854,77.571h-6.784
	c-9.235,0-15.698,7.388-15.698,15.698v21.24c0,9.234,7.388,15.698,15.698,15.698h292.738c8.311,0,14.774-7.388,14.774-15.698v-21.24
	C581.95,466.172,574.563,459.708,566.253,459.708z M421.269,100.482c8.311,0,15.699,7.387,15.699,15.698v190.233h-32.322v-189.31
	C404.647,107.868,412.035,100.482,421.269,100.482z M385.255,335.964c0-8.312,6.464-14.774,14.775-14.774h41.555
	c8.312,0,14.775,6.463,14.775,14.774v16.235c-11.469-2.794-23.28-4.229-35.093-4.229c-12.312,0-24.396,1.484-36.014,4.359
	L385.255,335.964L385.255,335.964z M420.346,361.821c60.458,0,112.595,41.571,124.874,97.888H295.472
	C307.75,403.392,359.888,361.821,420.346,361.821z M567.175,497.569c0,0.924-0.922,0.924-0.922,0.924H274.44
	c-0.923,0-0.923-0.924-0.923-0.924l0.923-22.163h291.813c0.922,0,0.922,0.924,0.922,0.924V497.569L567.175,497.569z"/>
</svg>
