<?xml version="1.0" encoding="utf-8"?>
<!-- Generator: Adobe Illustrator 16.0.0, SVG Export Plug-In . SVG Version: 6.00 Build 0)  -->
<!DOCTYPE svg PUBLIC "-//W3C//DTD SVG 1.1//EN" "http://www.w3.org/Graphics/SVG/1.1/DTD/svg11.dtd">
<svg version="1.1" id="Layer_1" xmlns="http://www.w3.org/2000/svg" xmlns:xlink="http://www.w3.org/1999/xlink" x="0px" y="0px"
	 width="640px" height="480px" viewBox="100.945 57.64 640 480" enable-background="new 100.945 57.64 640 480"
	 xml:space="preserve">
<g>
	<path fill="#009FE3" d="M420.149,356.969c-2.446,0-4.893,1.225-7.339,3.671c-15.902,20.796-51.376,69.725-51.376,95.414
		c0,31.806,26.912,58.716,58.715,58.716c31.806,0,58.717-26.911,58.717-58.716c0-25.689-35.474-75.842-51.377-95.414
		C426.265,358.192,423.821,356.969,420.149,356.969z M420.149,497.643c-22.018,0-40.367-18.348-40.367-40.367
		c0-13.455,19.572-46.483,40.367-74.619c20.795,29.359,40.368,61.164,40.368,74.619C461.74,479.296,443.392,497.643,420.149,497.643
		z"/>
	<path fill="#009FE3" d="M646.453,111.093h-41.591V89.073c1.224-4.893-3.669-8.563-8.562-8.563h-48.93
		c-2.448,0-4.893,1.224-6.117,2.447l-15.902,17.125H316.173L300.27,82.957c-1.223-1.223-3.669-2.447-6.116-2.447h-48.93
		c-6.117,0-9.787,3.67-9.787,8.563v22.019h-41.591c-4.893,0-8.563,4.893-8.563,9.786v79.512c0,4.893,3.67,8.563,8.563,8.563h41.591
		v22.019c0,4.893,3.67,8.563,8.563,8.563h48.93c2.447,0,4.894-1.224,6.117-2.447l15.902-17.126h57.494v29.358h-18.349
		c-4.894,0-8.564,3.669-8.564,8.562V316.6c0,4.894,3.67,8.562,8.564,8.562h132.111c4.894,0,8.563-3.669,8.563-8.562v-58.717
		c0-4.893-3.67-8.562-8.563-8.562h-18.348v-29.358h57.493l15.902,17.126c1.225,2.447,3.671,2.447,6.118,2.447h48.929
		c4.894,0,8.562-3.67,8.562-8.563v-22.019h41.592c4.893,0,8.563-3.671,8.563-8.563v-79.512
		C656.24,115.985,652.571,111.093,646.453,111.093z M235.437,190.604h-31.804v-61.163h31.804V190.604z M480.09,267.671v40.368
		h-2.447h-25.688v-11.011c0-4.892-3.669-8.561-8.562-8.561c-4.893,0-8.562,3.669-8.562,8.561v11.011H409.14v-11.011
		c0-4.892-3.67-8.561-8.563-8.561s-8.562,3.669-8.562,8.561v11.011h-25.688v-40.368H480.09z M587.737,222.41h-35.476l-15.902-17.127
		c-1.223-2.446-3.669-2.446-6.116-2.446h-69.727c-4.893,0-8.562,3.67-8.562,8.562v37.921h-58.716v-37.921
		c0-4.893-3.67-8.562-8.563-8.562h-69.726c-2.446,0-4.893,1.224-6.117,2.446L292.93,222.41h-39.144V98.86h35.474l15.903,17.125
		c1.224,2.448,3.67,2.448,6.117,2.448h216.517c2.446,0,4.895-1.224,6.116-2.448l18.349-17.125h35.475V222.41L587.737,222.41z
		 M637.891,190.604h-31.805v-61.163h31.805V190.604z"/>
</g>
</svg>
