<?xml version="1.0" encoding="utf-8"?>
<!-- Generator: Adobe Illustrator 16.0.0, SVG Export Plug-In . SVG Version: 6.00 Build 0)  -->
<!DOCTYPE svg PUBLIC "-//W3C//DTD SVG 1.1//EN" "http://www.w3.org/Graphics/SVG/1.1/DTD/svg11.dtd">
<svg version="1.1" id="Layer_1" xmlns="http://www.w3.org/2000/svg" xmlns:xlink="http://www.w3.org/1999/xlink" x="0px" y="0px"
	 width="640px" height="480px" viewBox="100.945 57.64 640 480" enable-background="new 100.945 57.64 640 480"
	 xml:space="preserve">
<g>
	<path fill="#009FE3" d="M660.047,209.605H540.235v-51.05c0-15.627-12.502-28.129-28.129-28.129H186.01
		c-15.627,0-28.129,12.502-28.129,28.129v214.62c0,15.628,12.502,28.13,28.129,28.13h116.771l-9.991,46.883h-7.806
		c-5.209,0-8.334,4.167-8.334,8.335c0,5.209,4.167,8.335,8.334,8.335h14.586h95.849h17.711c4.167,0,8.335-3.126,7.292-8.335
		c0-5.21-4.167-8.335-8.334-8.335h-12.607l-10.331-46.883h55.235v39.59c0,13.544,10.418,23.963,23.963,23.963h191.698
		c13.544,0,23.962-10.419,23.962-23.963V233.568C684.008,220.024,673.591,209.605,660.047,209.605z M444.386,233.568V336.71H173.509
		V178.35h350.056v31.255h-55.216C454.804,209.605,444.386,220.024,444.386,233.568z M173.509,158.555
		c0-7.292,5.209-12.502,12.502-12.502h325.053c7.293,0,12.502,5.21,12.502,12.502v3.126H173.509V158.555z M384.776,448.186h-74.583
		l9.173-46.883h55.217L384.776,448.186z M379.792,385.677h-67.72H186.01c-7.293,0-12.502-5.21-12.502-12.503v-19.796h270.877v32.299
		H379.792z M668.381,441.935c0,5.209-4.167,8.335-8.334,8.335H468.349c-5.209,0-8.335-4.168-8.335-8.335V234.609
		c0-5.208,4.167-8.334,8.335-8.334v-1.042h191.698c5.208,0,8.334,4.168,8.334,8.335V441.935z"/>
	<path fill="#009FE3" d="M644.418,241.902h-159.4c-5.209,0-8.335,4.167-8.335,8.335v142.731c0,5.21,4.167,8.335,8.335,8.335h159.4
		c4.168,0,7.293-3.125,8.335-7.292V250.237C652.753,245.028,648.585,241.902,644.418,241.902z M636.084,385.677H492.311V257.53
		h143.773V385.677L636.084,385.677z"/>
	<path fill="#009FE3" d="M572.531,416.931h-15.627c-5.21,0-8.335,4.167-8.335,8.334c0,5.21,4.167,8.336,8.335,8.336h15.627
		c4.168,0,8.336-4.168,8.336-8.336C580.867,420.057,576.699,416.931,572.531,416.931z"/>
</g>
</svg>
