<?xml version="1.0" encoding="utf-8"?>
<!-- Generator: Adobe Illustrator 16.0.0, SVG Export Plug-In . SVG Version: 6.00 Build 0)  -->
<!DOCTYPE svg PUBLIC "-//W3C//DTD SVG 1.1//EN" "http://www.w3.org/Graphics/SVG/1.1/DTD/svg11.dtd">
<svg version="1.1" id="Layer_1" xmlns="http://www.w3.org/2000/svg" xmlns:xlink="http://www.w3.org/1999/xlink" x="0px" y="0px"
	 width="640px" height="480px" viewBox="100.945 57.64 640 480" enable-background="new 100.945 57.64 640 480"
	 xml:space="preserve">
<g>
	<path fill="#009FE3" d="M421.307,133.654c-67.835,0-122.325,54.491-122.325,122.325c0,36.697,16.681,72.283,46.706,95.636v101.198
		c0,4.447,3.336,8.896,8.896,8.896h1.195c5.688,23.214,31.185,56.715,64.416,56.715c34.209,0,59.823-33.501,64.016-56.715h2.706
		c4.449,0,8.896-3.336,10.009-8.896V351.615c28.913-22.239,46.707-57.826,46.707-95.636
		C543.632,188.145,489.141,133.654,421.307,133.654z M476.909,414.629l-110.092-18.529c-0.377-0.076-0.747-0.127-1.113-0.162V377.75
		l110.092,18.349h1.113V414.629z M365.704,415.379l110.092,18.529h1.113v10.009h-1.113H365.704V415.379z M476.909,377.914
		l-54.491-9.616h54.491V377.914z M420.195,499.519c-21.128,0-38.921-22.241-44.481-37.81h88.965
		C459.116,477.278,441.323,499.519,420.195,499.519z M481.357,339.385c-3.335,2.224-4.447,4.447-4.447,7.784v3.336H365.704v-3.336
		c0-3.337-2.224-5.561-4.448-7.784c-27.801-18.904-43.37-50.043-43.37-83.404c0-56.715,46.706-103.421,103.42-103.421
		c56.713,0,103.421,46.707,103.421,103.421C524.728,288.23,508.047,320.48,481.357,339.385z"/>
	<path fill="#009FE3" d="M270.068,255.98h-37.809c-4.448,0-8.896,4.448-8.896,8.896c0,4.448,3.335,8.896,8.896,8.896h37.809
		c5.56,0,8.896-4.448,8.896-8.896C278.964,260.428,275.628,255.98,270.068,255.98z"/>
	<path fill="#009FE3" d="M608.132,255.98h-37.811c-4.448,0-8.896,4.448-8.896,8.896c0,4.448,3.337,8.896,8.896,8.896h37.81
		c5.561,0,8.896-4.448,8.896-8.896C617.028,260.428,613.693,255.98,608.132,255.98z"/>
	<path fill="#009FE3" d="M355.696,128.094c2.224,3.336,5.561,5.56,8.896,5.56c1.112,0,2.225-1.112,3.336-1.112
		c4.448-2.224,6.673-7.785,4.448-12.233L353.472,82.5c-2.224-4.448-7.785-6.672-12.232-4.448c-4.449,2.224-6.673,7.784-4.449,12.232
		L355.696,128.094z"/>
	<path fill="#009FE3" d="M472.461,132.542c1.112,1.112,3.335,1.112,4.448,1.112c3.336,0,6.672-2.224,7.784-5.56l18.904-37.81
		c2.225-4.448,0-10.008-4.447-12.232c-4.449-2.224-10.01,0-12.233,4.448l-18.903,37.81
		C465.789,124.758,468.014,130.318,472.461,132.542z"/>
	<path fill="#009FE3" d="M293.421,171.464l-37.81-18.904c-4.448-2.224-10.007,0-12.231,4.448
		c-2.224,4.448-1.112,11.121,4.447,13.345l36.698,17.793c1.112,1.112,3.336,1.112,4.448,1.112c3.336,0,6.672-1.112,8.896-5.561
		C300.094,179.248,297.869,173.688,293.421,171.464z"/>
	<path fill="#009FE3" d="M598.124,157.007c-2.225-4.448-7.785-6.671-12.233-4.448l-37.81,18.904
		c-4.448,2.225-6.671,7.785-4.448,12.233c2.224,3.336,5.561,5.561,8.897,5.561c1.111,0,2.224,0,4.447,0l36.697-20.017
		C598.124,167.015,600.348,161.455,598.124,157.007z"/>
</g>
</svg>
