<?xml version="1.0" encoding="utf-8"?>
<!-- Generator: Adobe Illustrator 16.0.0, SVG Export Plug-In . SVG Version: 6.00 Build 0)  -->
<!DOCTYPE svg PUBLIC "-//W3C//DTD SVG 1.1//EN" "http://www.w3.org/Graphics/SVG/1.1/DTD/svg11.dtd">
<svg version="1.1" id="Layer_1" xmlns="http://www.w3.org/2000/svg" xmlns:xlink="http://www.w3.org/1999/xlink" x="0px" y="0px"
	 width="640px" height="480px" viewBox="100.945 57.64 640 480" enable-background="new 100.945 57.64 640 480"
	 xml:space="preserve">
<g>
	<path fill="#009FE3" d="M664.857,102.084H177.033c-17.066,0-29.866,14.223-29.866,29.868v174.934
		c0,17.066,14.221,29.868,29.866,29.868h487.824c15.643,0,29.866-12.802,29.866-28.445V131.951
		C694.723,114.885,680.5,102.084,664.857,102.084z M303.611,278.44v39.824H283.7V278.44H303.611z M342.011,278.44v39.824h-18.489
		V278.44H342.011z M381.834,278.44v39.824h-19.911V278.44H381.834z M420.234,278.44v39.824h-18.489V278.44H420.234z M460.056,278.44
		v39.824h-19.91V278.44H460.056z M498.456,278.44v39.824h-18.488V278.44H498.456z M538.278,278.44v39.824h-19.911V278.44H538.278z
		 M576.678,278.44v39.824H558.19V278.44H576.678z M263.788,318.264H245.3V278.44h18.489V318.264z M674.813,308.308
		c0,5.688-4.269,9.956-9.956,9.956h-68.268v-49.779c0-5.689-4.267-9.956-9.956-9.956H235.344c-5.688,0-9.955,4.267-9.955,9.956
		v49.779h-48.356c-5.688,0-9.955-4.268-9.955-9.956V131.951c0-5.689,4.267-9.955,9.955-9.955h487.824
		c5.688,0,9.956,4.266,9.956,9.955V308.308z"/>
	<path fill="#009FE3" d="M626.454,160.396h-19.911c-5.688,0-9.955,4.267-9.955,9.956c0,5.688,4.268,9.956,9.955,9.956h19.911
		c4.269,0,8.534-4.268,9.958-9.956C636.412,164.663,632.146,160.396,626.454,160.396z"/>
	<path fill="#009FE3" d="M566.723,160.396h-19.911c-5.689,0-9.957,4.267-9.957,9.956c0,5.688,4.268,9.956,9.957,9.956h19.911
		c5.689,0,9.955-4.268,9.955-9.956C576.678,164.663,572.412,160.396,566.723,160.396z"/>
	<path fill="#009FE3" d="M508.411,160.396h-19.912c-5.688,0-9.955,4.267-9.955,9.956c0,5.688,4.267,9.956,9.955,9.956h19.912
		c5.688,0,9.955-4.268,9.955-9.956C518.366,164.663,514.1,160.396,508.411,160.396z"/>
	<path fill="#009FE3" d="M586.634,392.219c-2.845-5.688-8.534-7.111-12.801-4.267l-35.555,20.532v-41.867
		c0-5.688-4.266-9.954-9.955-9.954s-9.956,4.266-9.956,9.954v41.266L481.39,386.53c-4.267-1.422-9.956,0-12.8,4.266
		c-1.422,4.268,0,9.956,4.268,12.802l37.201,21.185l-37.201,21.481c-5.688,2.845-7.111,8.533-4.268,12.801
		c1.423,2.844,5.688,4.266,8.533,4.266c1.423,0,4.266,0,4.266,0l36.979-21.354v41.266c0,5.689,4.268,9.956,9.956,9.956
		c5.689,0,9.955-4.267,9.955-9.956v-42.391l36.979,21.057c1.422,1.422,2.843,1.422,4.267,1.422c2.844,0,5.688-1.422,7.11-5.688
		c1.422-4.267,0-9.957-4.267-12.801l-34.479-19.91l34.479-19.912C588.056,402.175,589.479,396.485,586.634,392.219z"/>
	<path fill="#009FE3" d="M289.389,422.086c9.956-9.955,11.377-27.022,2.845-38.4l-18.489-25.601
		c-4.268-4.267-9.957-4.267-14.222-1.421c-4.267,4.266-4.267,9.954-1.423,14.221l18.489,25.601c2.845,4.267,1.422,9.956-1.422,12.8
		l-15.645,15.646c-9.956,9.955-11.378,27.021-2.844,38.399l18.488,25.601c2.844,2.844,5.688,4.267,8.533,4.267s4.268,0,5.688-1.423
		c4.267-4.266,4.267-9.955,1.422-14.222l-18.489-25.601c-2.844-4.267-1.422-9.955,1.423-12.8L289.389,422.086z"/>
	<path fill="#009FE3" d="M347.7,422.086c9.955-9.955,11.378-27.022,2.845-38.4l-18.49-25.601c-4.267-4.267-9.955-4.267-14.221-1.421
		c-4.268,4.266-4.268,9.954-1.422,14.221l18.489,25.601c2.844,4.267,1.422,9.956-1.423,12.8l-15.644,15.646
		c-9.956,9.955-11.378,27.021-2.845,38.398l18.489,25.601c2.845,2.845,5.688,4.267,8.534,4.267c2.844,0,4.267,0,5.688-2.845
		c4.268-4.266,4.268-9.955,1.423-14.222l-18.489-25.599c-2.845-4.269-1.423-9.956,1.421-12.802L347.7,422.086z"/>
	<path fill="#009FE3" d="M404.59,423.509c9.956-9.956,11.378-27.022,2.844-38.4l-18.489-25.601
		c-4.267-4.266-9.955-4.266-14.221-1.423c-4.268,4.267-4.268,9.956-1.422,14.222l21.332,24.178c2.845,4.267,1.423,9.957-1.421,12.8
		l-15.645,15.646c-9.956,9.956-11.378,27.021-2.845,38.4l18.489,25.6c2.844,2.845,5.688,4.267,8.533,4.267
		c1.422,0,2.844,0,5.688-1.422c4.268-4.267,4.268-9.956,1.422-14.222l-18.488-25.601c-2.844-4.268-2.844-8.533-1.423-12.8
		L404.59,423.509z"/>
</g>
</svg>
