<?xml version="1.0" encoding="utf-8"?>
<!-- Generator: Adobe Illustrator 16.0.0, SVG Export Plug-In . SVG Version: 6.00 Build 0)  -->
<!DOCTYPE svg PUBLIC "-//W3C//DTD SVG 1.1//EN" "http://www.w3.org/Graphics/SVG/1.1/DTD/svg11.dtd">
<svg version="1.1" id="Layer_1" xmlns="http://www.w3.org/2000/svg" xmlns:xlink="http://www.w3.org/1999/xlink" x="0px" y="0px"
	 width="841.889px" height="595.281px" viewBox="0 0 841.889 595.281" enable-background="new 0 0 841.889 595.281"
	 xml:space="preserve">
<g>
	<path fill="#009FE3" d="M645.663,145.844c26.787-32.74-3.721-63.248-14.139-73.666c-25.299-24.555-58.783-26.043-81.851-2.977
		l-190.489,190.49c-46.879-10.418-97.478,4.465-131.706,38.693c-55.808,55.808-55.808,146.588,0,202.396
		c56.552,55.808,147.332,55.808,203.139,0c41.67-41.67,47.623-105.662,31.997-152.541l26.043-8.929
		c4.465-1.488,7.441-5.953,7.441-10.418l0.744-26.044l20.091-0.743c5.952,0,10.417-5.209,10.417-11.162v-20.835h20.091
		c5.953,0,11.161-5.208,11.161-11.161v-20.091h20.091c5.953,0,11.162-5.209,11.162-11.161v-20.091h20.09
		c5.953,0,11.162-5.209,11.162-11.162V177.84l14.882,2.232c3.721,0.744,6.697-0.744,9.674-2.977c2.231-2.976,3.72-5.952,2.976-9.673
		C647.895,161.469,646.406,151.797,645.663,145.844z M626.317,134.682c-2.232,2.232-2.977,5.208-2.977,8.185
		s0.744,8.186,1.488,13.395l-12.65-1.488c-2.976-0.744-6.696,0-8.929,2.232c-2.232,2.231-3.721,5.208-3.721,8.185v20.091h-20.091
		c-5.952,0-11.161,5.209-11.161,11.161v20.091h-20.091c-5.953,0-11.161,5.209-11.161,11.162v20.09h-20.091
		c-6.697,0-11.162,5.209-11.162,11.162v21.579l-20.091,0.744c-5.952,0-10.417,4.464-10.417,10.417l-0.744,28.276l-29.764,10.417
		c-2.977,0.744-5.209,2.977-6.697,5.953s-1.488,5.953,0,8.929c17.114,39.438,14.138,101.942-23.067,139.147
		c-47.622,47.622-124.265,47.622-171.887,0c-47.622-46.879-47.622-123.521,0-171.144c30.508-30.508,75.898-42.414,118.312-31.252
		c3.72,0.744,7.44,0,10.417-2.977L565.3,85.572c11.905-11.162,31.252-16.371,50.599,2.976
		C636.734,109.383,639.71,121.289,626.317,134.682z"/>
	<path fill="#009FE3" d="M258.731,391.397c-21.579,21.579-21.579,56.552,0,78.13c21.579,21.579,56.552,21.579,78.131,0
		c21.579-21.578,21.579-56.551,0-78.13S280.31,369.818,258.731,391.397z M321.98,453.901c-12.65,12.65-34.229,12.65-46.879,0
		c-12.649-12.649-12.649-34.229,0-46.878c12.65-13.394,33.484-13.394,46.879,0C334.629,419.673,334.629,441.252,321.98,453.901z"/>
</g>
</svg>
