<?xml version="1.0" encoding="utf-8"?>
<!-- Generator: Adobe Illustrator 16.0.0, SVG Export Plug-In . SVG Version: 6.00 Build 0)  -->
<!DOCTYPE svg PUBLIC "-//W3C//DTD SVG 1.1//EN" "http://www.w3.org/Graphics/SVG/1.1/DTD/svg11.dtd">
<svg version="1.1" id="Layer_1" xmlns="http://www.w3.org/2000/svg" xmlns:xlink="http://www.w3.org/1999/xlink" x="0px" y="0px"
	 width="841.889px" height="595.281px" viewBox="0 0 841.889 595.281" enable-background="new 0 0 841.889 595.281"
	 xml:space="preserve">
<path fill="#009FE3" d="M690.349,216.608c-12.724,0-25.1,1.609-36.941,4.622l-48.3-128.8c-0.291-0.777-0.664-1.504-1.073-2.207
	c1.353-2.438,2.126-5.265,2.126-8.316c0-9.472-7.366-16.838-16.838-16.838h-33.676c-9.471,0-16.838,7.366-16.838,16.838
	s7.367,16.838,16.838,16.838h16.855c-0.068,2.106,0.258,4.242,1.035,6.314l4.879,13.01l-203.504,43.608l-4.18-29.257h16.536
	c9.472,0,16.838-7.367,16.838-16.838c0-9.472-7.366-16.838-16.838-16.838H286.242c-9.472,0-16.838,7.366-16.838,16.838
	c0,9.471,7.366,16.838,16.838,16.838h50.413c-0.002,0.695,0.022,1.395,0.101,2.104l5.139,35.971c-0.327,0.284-0.64,0.572-0.93,0.862
	l-86.231,86.231c-27.139-25.365-63.481-40.98-103.193-40.98C68.404,216.608,0,285.011,0,368.148s68.403,151.541,151.54,151.541
	c75.307,0,138.523-56.126,149.763-128.487l87.018-6.216c0.603,0,1.053,0,1.053,0c6.05-0.672,10.799-4.356,13.176-9.395
	L592.329,155.17l29.292,78.112c-48.987,25.229-82.812,76.404-82.812,134.866c0,83.137,68.404,151.541,151.54,151.541
	c83.137,0,151.54-68.404,151.54-151.541S773.486,216.608,690.349,216.608z M347.938,212.794l19.906,139.34l-65.18,4.87
	c-1.998-26.952-11.172-52.039-25.605-73.331L347.938,212.794z M252.893,307.839c9.107,15.309,14.845,32.868,16.197,51.673
	l-73.351,5.48L252.893,307.839z M151.54,486.013c-65.247,0-117.864-52.618-117.864-117.865c0-65.246,52.617-117.864,117.864-117.864
	c30.743,0,58.68,11.686,79.632,30.866l-92.261,92.261c-4.209,5.262-6.313,12.628-3.156,18.942c3.156,5.262,9.471,9.471,15.785,9.471
	h1.052l114.048-8.146C255.021,446.589,208.015,486.013,151.54,486.013z M398.698,328.177L379.65,194.844l164.42-36.116
	L398.698,328.177z M690.349,486.013c-65.246,0-117.864-52.618-117.864-117.865c0-44.592,24.581-83.28,60.971-103.309l41.108,109.624
	c2.104,6.314,9.472,10.523,15.785,10.523c2.105,0,4.21,0,6.314-1.052c8.419-3.157,12.629-13.681,9.472-22.1l-40.834-108.891
	c8.069-1.737,16.447-2.66,25.048-2.66c65.247,0,117.865,52.618,117.865,117.864C808.214,433.395,755.596,486.013,690.349,486.013z"
	/>
</svg>
