<?xml version="1.0" encoding="utf-8"?>
<!-- Generator: Adobe Illustrator 16.0.0, SVG Export Plug-In . SVG Version: 6.00 Build 0)  -->
<!DOCTYPE svg PUBLIC "-//W3C//DTD SVG 1.1//EN" "http://www.w3.org/Graphics/SVG/1.1/DTD/svg11.dtd">
<svg version="1.1" id="Layer_1" xmlns="http://www.w3.org/2000/svg" xmlns:xlink="http://www.w3.org/1999/xlink" x="0px" y="0px"
	 width="841.889px" height="595.281px" viewBox="0 0 841.889 595.281" enable-background="new 0 0 841.889 595.281"
	 xml:space="preserve">
<g>
	<path fill="#FFFFFF" d="M420.106,378.968c-3.354,0-6.707,1.677-10.061,5.03c-21.799,28.507-70.428,95.58-70.428,130.794
		c0,43.599,36.891,80.489,80.488,80.489c43.599,0,80.489-36.891,80.489-80.489c0-35.214-48.629-103.964-70.428-130.794
		C428.49,380.644,425.137,378.968,420.106,378.968z M420.106,571.804c-30.183,0-55.335-25.152-55.335-55.336
		c0-18.445,26.829-63.72,55.335-102.287c28.507,40.244,55.336,83.842,55.336,102.287
		C477.119,546.652,451.966,571.804,420.106,571.804z"/>
	<path fill="#FFFFFF" d="M730.323,41.922H673.31V11.738C674.987,5.031,668.28,0,661.572,0h-67.073c-3.354,0-6.707,1.677-8.385,3.354
		L564.315,26.83h-286.74L255.776,3.353C254.099,1.677,250.745,0,247.391,0h-67.073c-8.385,0-13.415,5.031-13.415,11.738v30.184
		H109.89c-6.707,0-11.738,6.707-11.738,13.414v108.995c0,6.707,5.031,11.738,11.738,11.738h57.013v30.183
		c0,6.708,5.03,11.738,11.738,11.738h67.073c3.354,0,6.708-1.677,8.385-3.354l21.799-23.476h78.812v40.244h-25.152
		c-6.708,0-11.738,5.03-11.738,11.737v80.489c0,6.707,5.03,11.738,11.738,11.738h181.099c6.708,0,11.738-5.031,11.738-11.738
		v-80.489c0-6.707-5.03-11.737-11.738-11.737h-25.152v-40.244h78.812l21.799,23.476c1.678,3.354,5.031,3.354,8.385,3.354h67.073
		c6.708,0,11.738-5.03,11.738-11.738v-30.183h57.013c6.708,0,11.738-5.031,11.738-11.738V55.336
		C743.738,48.629,738.707,41.922,730.323,41.922z M166.903,150.916h-43.598V67.074h43.598V150.916z M502.272,256.557v55.336h-3.354
		h-35.214v-15.092c0-6.707-5.03-11.737-11.738-11.737c-6.707,0-11.737,5.03-11.737,11.737v15.092h-35.214v-15.092
		c0-6.707-5.031-11.737-11.738-11.737s-11.737,5.03-11.737,11.737v15.092h-35.214v-55.336H502.272z M649.834,194.514h-48.629
		l-21.799-23.477c-1.677-3.354-5.03-3.354-8.384-3.354h-95.581c-6.707,0-11.737,5.031-11.737,11.738v51.982h-80.488v-51.982
		c0-6.707-5.031-11.738-11.738-11.738h-95.58c-3.354,0-6.707,1.677-8.385,3.354l-21.799,23.477h-53.659V25.153h48.629l21.799,23.476
		c1.677,3.354,5.03,3.354,8.385,3.354h296.801c3.354,0,6.708-1.677,8.385-3.354l25.152-23.476h48.629V194.514z M718.584,150.916
		h-43.598V67.074h43.598V150.916z"/>
</g>
</svg>
