<?xml version="1.0" encoding="utf-8"?>
<!-- Generator: Adobe Illustrator 16.0.0, SVG Export Plug-In . SVG Version: 6.00 Build 0)  -->
<!DOCTYPE svg PUBLIC "-//W3C//DTD SVG 1.1//EN" "http://www.w3.org/Graphics/SVG/1.1/DTD/svg11.dtd">
<svg version="1.1" id="Layer_1" xmlns="http://www.w3.org/2000/svg" xmlns:xlink="http://www.w3.org/1999/xlink" x="0px" y="0px"
	 width="640px" height="480px" viewBox="100.945 57.64 640 480" enable-background="new 100.945 57.64 640 480"
	 xml:space="preserve">
<g>
	<path fill="#009FE3" d="M617.26,170.059c22.56-27.572-3.133-53.264-11.905-62.037c-21.306-20.679-49.504-21.932-68.931-2.507
		l-159.79,159.793c-39.477-8.773-82.088,3.758-110.914,32.584c-46.998,46.998-46.998,123.447,0,170.444
		c47.624,46.998,124.073,46.998,171.071,0c34.464-34.465,39.477-88.354,26.317-127.832l21.933-7.521
		c3.759-1.253,6.267-5.013,6.267-8.771l0.625-21.933l16.919-0.626c5.014,0,8.773-4.386,8.773-9.4v-17.545h16.918
		c5.013,0,9.399-4.388,9.399-9.4v-16.919h16.919c5.014,0,9.4-4.386,9.4-9.399v-16.918h16.919c5.013,0,9.398-4.387,9.398-9.4v-15.667
		l12.534,1.879c3.134,0.627,5.639-0.625,8.146-2.506c1.881-2.507,3.133-5.013,2.507-8.146
		C619.14,183.217,617.887,175.071,617.26,170.059z M601.595,160.658c-1.88,1.879-2.507,4.387-2.507,6.893
		c0,2.508,0.626,6.893,1.253,11.28l-10.652-1.254c-2.508-0.626-5.64,0-7.521,1.88c-1.879,1.879-3.134,4.386-3.134,6.893v16.919
		h-16.918c-5.014,0-9.399,4.387-9.399,9.4v16.918h-16.919c-5.013,0-9.399,4.387-9.399,9.4v16.921H509.48c-5.639,0-9.4,4.387-9.4,9.4
		v18.171l-16.918,0.626c-5.013,0-8.773,3.76-8.773,8.772l-0.625,23.813l-25.066,8.771c-2.507,0.626-4.386,2.507-5.639,5.014
		c-1.254,2.506-1.254,5.014,0,7.52c14.413,33.211,11.904,85.849-19.427,117.181c-40.103,40.104-104.646,40.104-144.751,0
		c-40.104-39.478-40.104-104.021,0-144.126c25.692-25.692,63.291-36.344,99.635-26.318c3.133,0.626,6.266,0,8.772-2.507
		l162.924-162.924c10.025-9.4,26.318-13.786,42.61,2.507C610.367,139.353,612.872,149.38,601.595,160.658z"/>
	<path fill="#009FE3" d="M292.038,376.221c-18.171,18.173-18.171,47.622,0,65.795c18.173,18.173,47.624,18.173,65.797,0
		c18.172-18.173,18.172-47.622,0-65.795C339.662,358.049,310.211,358.049,292.038,376.221z M344.676,428.857
		c-10.652,10.653-28.825,10.653-39.478,0c-10.652-10.652-10.652-28.825,0-39.477c10.653-10.653,28.826-10.653,39.478,0
		C355.327,400.033,355.328,418.205,344.676,428.857z"/>
</g>
</svg>
