<?xml version="1.0" encoding="utf-8"?>
<!-- Generator: Adobe Illustrator 16.0.0, SVG Export Plug-In . SVG Version: 6.00 Build 0)  -->
<!DOCTYPE svg PUBLIC "-//W3C//DTD SVG 1.1//EN" "http://www.w3.org/Graphics/SVG/1.1/DTD/svg11.dtd">
<svg version="1.1" id="Layer_1" xmlns="http://www.w3.org/2000/svg" xmlns:xlink="http://www.w3.org/1999/xlink" x="0px" y="0px"
	 width="640px" height="480px" viewBox="100.945 57.64 640 480" enable-background="new 100.945 57.64 640 480"
	 xml:space="preserve">
<g>
	<path fill="#009FE3" d="M362.772,279.802c0-15.966-12.989-28.956-28.956-28.956c-15.966,0-28.957,12.989-28.957,28.956
		c0,15.968,12.99,28.958,28.957,28.958C349.783,308.76,362.772,295.769,362.772,279.802z M333.816,291.647
		c-6.531,0-11.844-5.313-11.844-11.844c0-6.53,5.313-11.844,11.844-11.844c6.529,0,11.843,5.314,11.843,11.844
		C345.659,286.334,340.346,291.647,333.816,291.647z"/>
	<path fill="#009FE3" d="M503.703,250.846c-15.967,0-28.955,12.989-28.955,28.956c0,15.968,12.988,28.958,28.955,28.958
		s28.957-12.99,28.957-28.958C532.661,263.836,519.67,250.846,503.703,250.846z M503.703,291.647
		c-6.53,0-11.844-5.313-11.844-11.844c0-6.53,5.313-11.844,11.844-11.844c6.532,0,11.844,5.314,11.844,11.844
		C515.547,286.334,510.236,291.647,503.703,291.647z"/>
	<path fill="#009FE3" d="M668.136,254.856c-1.673-17.215-6.405-35.359-12.653-48.535c-14.731-31.061-49.278-82.16-50.742-84.32
		l-2.561-3.781l-96.891,0.499v-0.475H295.622v0.289l-60.736-0.313l-2.562,3.781c-1.463,2.16-36.01,53.259-50.741,84.32
		c-6.249,13.175-10.979,31.32-12.654,48.535c-1.47,15.103-1.206,36.289,8.386,51.455c7.343,11.612,18.938,17.748,33.531,17.748
		c20.938,0,37.017-6.695,50.604-21.069c0.904-0.956,1.788-1.949,2.664-2.96c-0.169,13.946-0.127,29.474,0.662,37.915
		c0.127,1.371,0.247,2.988,0.385,4.86c1.479,20.058,4.937,67.03,44.906,101.782c42.376,36.843,74.731,39.84,109.656,39.84
		c34.923,0,67.282-2.998,109.654-39.84c39.97-34.751,43.43-81.723,44.907-101.78c0.139-1.873,0.258-3.49,0.386-4.862
		c0.738-7.904,0.823-22.019,0.691-35.234c0.085,0.092,0.169,0.188,0.255,0.28c13.587,14.374,29.666,21.069,50.603,21.069
		c14.594,0,26.188-6.137,33.532-17.748C669.344,291.146,669.605,269.959,668.136,254.856z M249.014,291.235
		c-10.409,11.013-21.824,15.711-38.167,15.711c-8.789,0-14.848-3.108-19.07-9.784c-12.158-19.223-5.127-61.593,5.268-83.509
		c11.933-25.16,38.588-65.772,46.914-78.274l108.789,0.559c-16.819,19.469-46.535,56.199-67.049,94.604
		c-2.211,4.132-4.324,8.132-6.365,11.999C268.218,263.585,259.439,280.207,249.014,291.235z M557.633,336.355
		c-0.145,1.539-0.269,3.232-0.414,5.196c-1.435,19.474-4.419,59.997-39.067,90.121c-37.976,33.019-65.887,35.644-98.428,35.644
		c-32.542,0-60.452-2.625-98.427-35.644c-34.651-30.124-37.636-70.649-39.07-90.124c-0.145-1.961-0.269-3.657-0.413-5.193
		c-1.338-14.334-0.305-53.05-0.03-62.385c4.062-7.124,8.19-14.935,12.679-23.437c2.028-3.839,4.127-7.812,6.326-11.921
		c25.185-47.151,66.202-93.215,75.368-103.255h84.75c9.166,10.039,50.183,56.104,75.372,103.262
		c2.195,4.102,4.293,8.076,6.321,11.915c5.415,10.249,10.302,19.491,15.181,27.737C558.144,291.885,558.818,323.67,557.633,336.355z
		 M645.288,297.163c-4.222,6.675-10.281,9.784-19.07,9.784c-16.342,0-27.758-4.699-38.166-15.712
		c-4.638-4.908-8.952-10.928-13.288-17.948c-0.032-1.05-0.054-1.722-0.061-1.924l-1.092,0.035
		c-5.035-8.34-10.146-18.005-15.877-28.857c-2.043-3.865-4.155-7.866-6.363-11.992c-20.518-38.41-50.236-75.142-67.053-94.61
		l108.788-0.559c8.326,12.502,34.982,53.114,46.914,78.274C650.415,235.571,657.448,277.941,645.288,297.163z"/>
	<path fill="#009FE3" d="M419.724,334.034c-53.99,0-66.998,10.03-70.085,14.342c-2.243,3.135-2.114,7.382,0.316,10.374
		l63.126,77.747c1.604,1.976,4.003,3.136,6.547,3.163c0.031,0.001,0.064,0.001,0.097,0.001c2.508,0,4.892-1.103,6.521-3.016
		l64.712-76.162c2.592-3.049,2.723-7.486,0.317-10.684C488.491,346.1,475.109,334.034,419.724,334.034z M419.872,417.716
		l-49.968-61.542c7.55-2.285,22.336-5.027,49.819-5.027c28.59,0,43.85,3.394,51.504,6.13L419.872,417.716z"/>
</g>
</svg>
