<?xml version="1.0" encoding="utf-8"?>
<!-- Generator: Adobe Illustrator 16.0.0, SVG Export Plug-In . SVG Version: 6.00 Build 0)  -->
<!DOCTYPE svg PUBLIC "-//W3C//DTD SVG 1.1//EN" "http://www.w3.org/Graphics/SVG/1.1/DTD/svg11.dtd">
<svg version="1.1" id="Layer_1" xmlns="http://www.w3.org/2000/svg" xmlns:xlink="http://www.w3.org/1999/xlink" x="0px" y="0px"
	 width="841.889px" height="595.281px" viewBox="0 0 841.889 595.281" enable-background="new 0 0 841.889 595.281"
	 xml:space="preserve">
<g>
	<path fill="#FFFFFF" d="M338.601,262.487c0-23.626-19.221-42.847-42.848-42.847c-23.626,0-42.847,19.221-42.847,42.847
		s19.221,42.847,42.847,42.847C319.38,305.334,338.601,286.113,338.601,262.487z M295.753,279.334
		c-9.289,0-16.847-7.558-16.847-16.847s7.558-16.847,16.847-16.847c9.29,0,16.848,7.558,16.848,16.847
		S305.043,279.334,295.753,279.334z"/>
	<path fill="#FFFFFF" d="M544.312,219.64c-23.626,0-42.847,19.221-42.847,42.847s19.221,42.847,42.847,42.847
		s42.847-19.221,42.847-42.847S567.938,219.64,544.312,219.64z M544.312,279.334c-9.289,0-16.847-7.558-16.847-16.847
		s7.558-16.847,16.847-16.847s16.847,7.558,16.847,16.847S553.601,279.334,544.312,279.334z"/>
	<path fill="#FFFFFF" d="M785.533,226.108c-2.455-25.239-9.393-51.844-18.558-71.168c-21.567-45.478-72.132-120.269-74.273-123.43
		l-3.892-5.744l-142.178,0.731v-0.695H240.039v0.423l-89.282-0.458l-3.892,5.744c-2.142,3.162-52.706,77.952-74.273,123.43
		c-9.165,19.324-16.103,45.93-18.558,71.168c-2.156,22.172-1.766,53.283,12.341,75.587c10.837,17.134,27.943,26.19,49.468,26.19
		c30.773,0,54.41-9.844,74.386-30.978c1.087-1.15,2.159-2.329,3.217-3.533c-0.232,20.121-0.149,42.252,0.983,54.39
		c0.187,2.002,0.361,4.366,0.562,7.103c2.166,29.406,7.239,98.269,65.867,149.242c62.054,53.953,109.451,58.396,160.583,58.406l0,0
		c0.027,0,0.056,0,0.083,0s0.056,0,0.083,0l0,0c51.132-0.01,98.528-4.453,160.583-58.406c58.626-50.973,63.7-119.834,65.867-149.238
		c0.201-2.738,0.376-5.104,0.562-7.106c1.061-11.368,1.201-31.503,1.023-50.542c19.912,20.914,43.463,30.663,74.081,30.663
		c21.525,0,38.631-9.057,49.468-26.19C787.3,279.391,787.69,248.28,785.533,226.108z M171.334,279.048
		c-15.13,16.007-31.726,22.837-55.491,22.837c-12.678,0-21.415-4.477-27.494-14.089c-7.932-12.541-10.928-33.555-8.437-59.171
		c2.147-22.074,8.344-46.04,16.172-62.545c17.376-36.64,56.122-95.711,68.459-114.244l157.862,0.811
		c-24.736,28.698-67.716,81.998-97.477,137.71c-3.234,6.043-6.326,11.897-9.313,17.552
		C199.371,238.666,186.54,262.959,171.334,279.048z M622.734,345.347c-0.211,2.256-0.394,4.738-0.605,7.612
		c-2.095,28.429-6.454,87.584-56.996,131.528c-55.402,48.168-96.134,52.022-143.607,52.027
		c-47.473-0.005-88.205-3.859-143.606-52.027c-50.545-43.945-54.903-103.102-56.997-131.53c-0.212-2.874-0.395-5.354-0.605-7.609
		c-1.964-21.041-0.431-78.073-0.037-91.396c5.87-10.32,11.84-21.621,18.326-33.9c2.966-5.614,6.036-11.427,9.251-17.436
		c36.699-68.703,96.391-135.834,110.058-150.815h123.737c13.667,14.981,73.359,82.114,110.062,150.824
		c3.211,6,6.281,11.813,9.246,17.427c7.837,14.837,14.921,28.233,21.985,40.208C623.474,280.078,624.468,326.76,622.734,345.347z
		 M751.219,287.797c-6.079,9.612-14.815,14.089-27.494,14.089c-23.766,0-40.36-6.83-55.491-22.837
		c-6.798-7.193-13.122-16.037-19.488-26.354c-0.039-1.302-0.066-2.135-0.075-2.405l-1.362,0.044
		c-7.406-12.242-14.92-26.452-23.356-42.424c-2.986-5.655-6.078-11.509-9.308-17.543c-29.764-55.719-72.745-109.021-97.481-137.719
		l157.861-0.811c12.339,18.532,51.084,77.604,68.46,114.244c7.828,16.505,14.024,40.47,16.172,62.544
		C762.147,254.242,759.151,275.256,751.219,287.797z"/>
	<path fill="#FFFFFF" d="M421.442,341.515c-79.214,0-98.371,14.816-102.931,21.187c-3.406,4.759-3.212,11.208,0.473,15.754
		l92.359,113.915c2.437,3.005,6.085,4.769,9.953,4.812c0.049,0.001,0.097,0.001,0.146,0.001c3.815,0,7.441-1.677,9.913-4.59
		L526.036,381c3.931-4.633,4.128-11.37,0.476-16.226C522.407,359.318,502.699,341.515,421.442,341.515z M339.18,362.081
		c-0.483-0.596-0.615-0.835-0.544-0.835c0.174,0,1.566,1.441,1.961,2.584L339.18,362.081z M421.669,463.822l-72.324-89.204
		c11.184-3.291,32.657-7.103,72.097-7.103c41.017,0,63.219,4.777,74.547,8.712L421.669,463.822z"/>
</g>
</svg>
