<?xml version="1.0" encoding="utf-8"?>
<!-- Generator: Adobe Illustrator 16.0.0, SVG Export Plug-In . SVG Version: 6.00 Build 0)  -->
<!DOCTYPE svg PUBLIC "-//W3C//DTD SVG 1.1//EN" "http://www.w3.org/Graphics/SVG/1.1/DTD/svg11.dtd">
<svg version="1.1" id="Layer_1" xmlns="http://www.w3.org/2000/svg" xmlns:xlink="http://www.w3.org/1999/xlink" x="0px" y="0px"
	 width="640px" height="480px" viewBox="-216.083 -136.083 640 480" enable-background="new -216.083 -136.083 640 480"
	 xml:space="preserve">
<path fill="#009FE3" d="M274.699,240.729c-31.916,0-57.89-25.97-57.89-57.891v-2.812l-224.151-0.006v2.812
	c0,31.927-25.969,57.896-57.89,57.896s-57.889-25.97-57.889-57.891v-2.812l-51.377-0.006c-5.145,0-9.33-4.186-9.33-9.333V73.566
	c0-5.144,4.185-9.332,9.33-9.332h68.181l59.12-78.826c8.622-11.458,22.307-18.304,36.599-18.304h157.831
	c14.289,0,27.973,6.834,36.604,18.28l59.113,78.842h80.318c57.882,0,70.031,51.287,70.031,94.312v12.142
	c0,5.147-4.187,9.333-9.332,9.333l-51.376,0.006v2.811C332.591,214.759,306.62,240.729,274.699,240.729z M274.699,143.597
	c-21.634,0-39.233,17.602-39.233,39.235c0,21.632,17.6,39.232,39.233,39.232c21.636,0,39.235-17.598,39.235-39.232
	C313.934,161.199,296.336,143.597,274.699,143.597z M-65.231,143.597c-21.634,0-39.235,17.602-39.235,39.235
	c0,21.632,17.601,39.232,39.235,39.232c21.631,0,39.232-17.598,39.232-39.232C-25.996,161.199-43.597,143.597-65.231,143.597z
	 M274.699,124.949c22.955,0,43.768,13.634,53.02,34.731l0.737,1.685h46.187v-2.812c0-32.478-5.328-75.657-51.374-75.657H-165.17
	v78.469h46.184l0.74-1.682c9.254-21.101,30.062-34.732,53.018-34.732c22.956,0,43.763,13.635,53.015,34.732l0.739,1.684h232.42
	l0.742-1.684C230.933,138.583,251.743,124.949,274.699,124.949z M77.641,64.242h141.981L168.901-3.391
	c-5.084-6.759-13.188-10.793-21.676-10.793H77.641V64.242z M-10.604-14.182c-8.485,0-16.592,4.032-21.694,10.785l-50.714,67.642
	H58.98v-78.424h-69.584V-14.182z"/>
</svg>
