<?xml version="1.0" encoding="utf-8"?>
<!-- Generator: Adobe Illustrator 16.0.0, SVG Export Plug-In . SVG Version: 6.00 Build 0)  -->
<!DOCTYPE svg PUBLIC "-//W3C//DTD SVG 1.1//EN" "http://www.w3.org/Graphics/SVG/1.1/DTD/svg11.dtd">
<svg version="1.1" id="Layer_1" xmlns="http://www.w3.org/2000/svg" xmlns:xlink="http://www.w3.org/1999/xlink" x="0px" y="0px"
	 width="640px" height="480px" viewBox="100.945 57.64 640 480" enable-background="new 100.945 57.64 640 480"
	 xml:space="preserve">
<g id="XMLID_47_">
	<path id="XMLID_27_" fill="#009FE3" d="M527.302,236.799c4.221-2.814,4.221-9.849,0-12.662
		c-1.407-1.408-42.207-46.429-105.519-53.463c-5.626,0-9.848,2.814-9.848,8.442c0,5.627,2.814,9.848,8.441,9.848
		c56.277,7.035,94.263,47.835,94.263,47.835c1.406,1.406,4.222,2.813,7.036,2.813C523.081,239.612,524.489,238.205,527.302,236.799z
		"/>
	<path id="XMLID_48_" fill="#009FE3" d="M698.945,252.274c-1.407-2.814-4.221-4.221-7.034-5.627c-2.814,0-5.627,0-8.44,2.814
		l-30.953,32.359h-14.069v-15.475l30.952-32.359c1.407-2.815,2.813-5.628,2.813-8.442s-2.813-5.627-5.627-7.034
		c-11.256-5.628-22.511-8.441-35.172-8.441c-12.662,0-23.918,2.813-33.766,8.441c-18.29-5.628-36.58-7.034-47.835-8.441
		c-30.952-43.614-98.484-70.345-174.457-70.345c-66.125-1.407-125.215,18.29-161.794,52.055l-28.138-1.407
		c-18.29,0-40.8,15.476-40.8,35.172v78.787c0,18.29,29.545,53.462,49.242,53.462h36.579c9.848,12.664,23.917,19.697,40.8,19.697
		c16.884,0,30.953-8.441,40.802-19.697h208.222l-56.276,57.685c-5.627,5.627-8.441,14.068-8.441,22.511
		c0,8.441,2.814,15.476,8.441,21.104c5.627,5.628,12.663,8.44,21.104,8.44c8.44,0,15.476-2.813,21.104-8.44l97.076-99.892
		c8.441,4.221,18.291,5.628,28.139,5.628l0,0c21.104,0,39.395-8.442,53.463-22.51C708.793,319.806,714.421,283.226,698.945,252.274z
		 M271.245,357.793c-18.29,0-32.358-14.068-32.358-32.359c0-18.29,14.068-32.359,32.358-32.359c18.29,0,32.36,14.068,32.36,32.359
		C303.604,343.725,289.535,357.793,271.245,357.793z M321.894,339.504c1.407-4.222,1.407-9.849,1.407-14.069
		c0-29.545-23.917-52.055-52.056-52.055c-29.544,0-52.054,23.917-52.054,52.055c0,4.222,0,8.441,1.407,12.662h-26.732
		c-8.442,0-29.545-25.324-29.545-33.766v-78.787c0-7.034,11.255-15.476,21.103-15.476l35.173,1.407l4.22-2.814
		c32.36-30.952,88.636-50.649,150.54-50.649c71.752,0,135.063,25.324,161.794,64.719l2.814,4.22h4.222
		c7.034,1.407,19.695,2.814,33.766,5.628c-11.256,11.255-18.29,26.73-21.104,42.206c-22.511,5.629-39.395,26.732-39.395,50.65
		c0,4.222,0,8.441,1.408,12.662l0,0H321.894V339.504z M559.66,316.992l-21.103,22.512c-1.408-4.222-2.815-8.441-2.815-14.069
		c0-12.662,8.442-25.324,19.698-29.545C555.44,302.924,556.847,309.958,559.66,316.992z M672.213,329.655
		c-11.255,11.256-25.324,16.883-40.8,16.883c-9.849,0-18.289-2.813-26.731-7.034c-4.221-1.408-8.44-1.408-11.255,1.407
		L492.129,446.428c-4.221,4.221-11.255,4.221-15.475,0c-2.815-2.814-2.815-5.627-2.815-8.441c0-2.813,1.408-5.628,2.815-8.441
		L577.95,325.434c2.814-2.813,4.221-7.033,1.407-11.256c-4.221-8.441-5.627-16.883-5.627-23.917v-2.815
		c0-15.475,7.034-29.545,16.882-40.8c4.223-4.221,8.442-7.035,12.663-9.848l1.407-1.407c8.441-4.222,16.883-7.035,26.731-7.035
		c4.22,0,9.849,0,14.068,1.407l-23.917,23.917c-1.406,2.814-2.814,5.627-2.814,8.441v29.546c0,5.627,4.222,9.848,9.848,9.848h28.139
		c2.814,0,4.221-1.407,7.035-2.813l23.917-23.918C691.91,293.074,686.282,315.586,672.213,329.655z"/>
</g>
</svg>
