<?xml version="1.0" encoding="utf-8"?>
<!-- Generator: Adobe Illustrator 16.0.0, SVG Export Plug-In . SVG Version: 6.00 Build 0)  -->
<!DOCTYPE svg PUBLIC "-//W3C//DTD SVG 1.1//EN" "http://www.w3.org/Graphics/SVG/1.1/DTD/svg11.dtd">
<svg version="1.1" id="Layer_1" xmlns="http://www.w3.org/2000/svg" xmlns:xlink="http://www.w3.org/1999/xlink" x="0px" y="0px"
	 width="640px" height="480px" viewBox="100.945 57.64 640 480" enable-background="new 100.945 57.64 640 480"
	 xml:space="preserve">
<path fill="#009FE3" d="M614.129,450.055c-28.212,0-54.864-11.115-75.047-31.298c-20.184-20.184-31.299-46.837-31.299-75.047
	c0-19.807,5.59-39.19,16.163-56.058c10.286-16.404,24.796-29.749,41.963-38.591l2.281-1.174l-23.724-63.261L404.245,347.491
	l-0.167,0.354c-1.35,2.863-3.917,4.722-7.059,5.12h-0.692l-65.115,4.651l-0.353,2.269c-7.985,51.406-53.167,90.172-105.098,90.172
	c-28.213,0-54.865-11.115-75.047-31.299c-20.184-20.183-31.299-46.836-31.299-75.047c0-28.213,11.115-54.865,31.298-75.048
	c20.182-20.182,46.836-31.298,75.047-31.298c0.001,0-0.001,0,0,0c26.852,0,52.568,10.214,72.412,28.761l2.036,1.904l64.126-64.125
	c0.163-0.163,0.338-0.324,0.521-0.484l1.186-1.03l-3.92-27.435c-0.036-0.34-0.053-0.706-0.052-1.149l0.009-2.892H322.85
	c-5.275,0-9.254-3.978-9.254-9.253c0-5.275,3.979-9.253,9.254-9.253h72.822c5.276,0,9.253,3.978,9.253,9.253
	c0,5.276-3.978,9.253-9.253,9.253h-15.243l3.919,27.438l152.972-32.78l-2.546-6.795h-17.738c-5.274,0-9.253-3.978-9.253-9.253
	s3.979-9.253,9.253-9.253h24.273c2.414,0,4.679,0.88,6.381,2.477l0.06,0.054c1.039,0.924,1.792,1.995,2.238,3.183l35.721,95.257
	l2.504-0.637c8.454-2.151,17.173-3.243,25.916-3.243c28.213,0,54.865,11.115,75.048,31.298
	c20.183,20.183,31.298,46.835,31.298,75.048c0,28.212-11.115,54.864-31.298,75.048C668.993,438.941,642.341,450.055,614.129,450.055
	z M571.731,266.719c-28.029,15.427-45.44,44.929-45.44,76.991c0,23.516,9.122,45.588,25.687,62.152s38.638,25.688,62.152,25.688
	c23.517,0,45.589-9.123,62.153-25.688s25.688-38.637,25.688-62.152c0-23.517-9.123-45.589-25.688-62.154
	c-16.563-16.564-38.637-25.687-62.153-25.687c-6.274,0-12.553,0.667-18.661,1.982l-3.265,0.703l30.605,81.615
	c1.771,4.722-0.681,10.545-5.141,12.218l-0.143,0.054l-0.136,0.067c-0.907,0.454-1.944,0.454-3.26,0.454
	c-3.271,0-7.523-2.256-8.643-5.613l-30.836-82.237L571.731,266.719z M225.76,255.872c-23.516,0-45.588,9.122-62.153,25.687
	c-16.563,16.564-25.686,38.638-25.686,62.153c0,23.515,9.123,45.588,25.686,62.152c16.564,16.563,38.638,25.687,62.153,25.687
	c20.173,0,39.856-6.968,55.423-19.622c15.347-12.474,26.127-29.945,30.355-49.196l0.827-3.769l-85.952,6.139h-0.654
	c-3.241,0-6.943-2.236-8.848-5.331c-1.741-3.609-0.184-7.678,1.901-10.346l68.514-68.513l-2.222-2.035
	C268.9,264.042,247.824,255.872,225.76,255.872z M250.087,344.888l63.484-4.743l-0.207-2.867
	c-0.99-13.752-5.053-26.711-12.073-38.514l-1.895-3.186L250.087,344.888z M312.51,282.467l1.337,1.972
	c10.396,15.336,16.609,33.127,17.967,51.451l0.213,2.876l52.934-3.954l-15.601-109.197L312.51,282.467z M386.956,216.608
	l15.007,105.053l114.518-132.755L386.956,216.608z"/>
</svg>
