<?xml version="1.0" encoding="utf-8"?>
<!-- Generator: Adobe Illustrator 21.0.1, SVG Export Plug-In . SVG Version: 6.00 Build 0)  -->
<svg version="1.1" id="Layer_1" xmlns="http://www.w3.org/2000/svg" xmlns:xlink="http://www.w3.org/1999/xlink" x="0px" y="0px"
	 viewBox="0 0 200 64" style="enable-background:new 0 0 200 64;" xml:space="preserve">
<style type="text/css">
	.st0{fill:#00ADEE;}
	.st1{fill:#FFFFFF;}
</style>
<g>
	<g>
		<path class="st0" d="M196.9,0.1h-57.6c-1.7,0-3.1,1.4-3.1,3.1v57.6c0,1.7,1.4,3.1,3.1,3.1h57.6c1.7,0,3.1-1.4,3.1-3.1V3.2
			C200,1.5,198.6,0.1,196.9,0.1z"/>
		<path class="st1" d="M195.7,38.1c-2.3-2.9-8-3.5-11-3.5c-12.8,0-24.9,2.4-36.2,6.7c0.1-3.3,0-6.7-0.4-9.9
			c8.5-2.5,23.6-4.5,33.5-3.6C191,28.5,194.5,33.7,195.7,38.1z M191.6,29.7c-2.6-2.4-4.6-4.2-12.4-5.3c-7.8-1.1-24.4,0.6-31.8,2.4
			c-0.5-2.9-1.2-5.8-2.1-8.6c5-0.9,10.2-1.4,15.5-1.4c5.1,0,10.2,0.4,15.1,1.3C186.2,19.9,189.5,25.7,191.6,29.7z M139.7,5.5
			c26.7-0.7,41.7,11,44.7,14.2c-2.6-2.2-7.6-4-11.9-4.9c-5.3-1-10.8-1.6-16.4-1.6c-4.1,0-8.2,0.3-12.1,0.8
			C142.9,11.5,141,8,139.7,5.5z M191.6,55.1c4.3-8.9,3.3-10.4-5.2-9.4c-13.1,1.6-29.6,7.2-42.1,14c2.3-4.4,3.4-8.8,3.8-12.8
			c12-5.3,25.3-8.3,39.2-8.6C202,37.9,196.5,49,191.6,55.1z"/>
	</g>
	<g>
		<path d="M83.2,37.6c1.8-0.3,4.5-0.5,7.5-0.5c3.7,0,6.2,0.5,8,1.7c1.5,1,2.3,3.3,2.3,5.3c0,2.8-1.8,4.8-4,5.5v0.1
			c1.1,1.5,7.4,9.6,7.4,9.6h-6.2l-6.6-8.7h-2.8v8.7h-5.6V37.6z M88.8,47.1l2.2,0c2.8,0,4.4-1.3,4.4-3.2c0-2-1.5-3-4.1-3.1
			c-1.4,0-2.1,0.1-2.5,0.2V47.1z M1.1,54.2c1.5,0.7,3.8,1.4,6.2,1.4c2.6,0,3.9-1,3.9-2.4c0-1.4-1.2-2.2-4.2-3.1
			c-4.1-1.3-6.8-3.3-6.8-6.5c0-3.8,3.5-6.7,9.4-6.7c2.8,0,4.9,0.5,6.3,1.1l-1.2,4c-1-0.4-2.8-1-5.2-1C7.2,41,6,42,6,43.1
			c0,1.4,1.4,2,4.6,3.1c4.4,1.4,6.4,3.5,6.4,6.6c0,3.7-3.2,6.9-10,6.9c-2.8,0-5.6-0.7-7-1.4L1.1,54.2z M33.7,50h-9.1v5.2h10.2v4.1
			H19V37.3l15.3,0v4.1h-9.7V46h9.1V50z M57.5,58.4c-1.7,0.5-5,1.2-8.3,1.2c-4.5,0-7.8-1-10.1-3c-2.3-1.9-3.5-4.8-3.5-8
			c0-7.3,6-11.5,14.2-11.5c3.2,0,5.7,0.6,6.9,1.1l-1.2,4c-1.4-0.5-3.1-0.9-5.8-0.9c-4.7,0-8.2,2.4-8.2,7.1c0,4.6,3.2,7.3,7.8,7.3
			c1.3,0,2.3-0.1,2.8-0.3v-4.6l0-3.9h5.4V58.4z M65.6,37.3V50c0,3.8,1.6,5.7,4.5,5.7c2.9,0,4.6-1.8,4.6-5.7V37.3h5.6v12.4
			c0,6.8-3.9,10.1-10.3,10.1c-6.3,0-9.9-3.1-9.9-10.1V37.3L65.6,37.3z M126.2,48.1c0,7.3-4.9,11.6-12.2,11.6
			c-7.4,0-11.7-4.9-11.7-11.2c0-6.6,4.7-11.6,12.1-11.6C122.1,36.9,126.2,42,126.2,48.1z M108.3,48.4c0,4.3,2.3,7.4,6,7.4
			c3.8,0,6-3.2,6-7.5c0-4-2.1-7.4-6-7.4C110.5,40.9,108.3,44.1,108.3,48.4z"/>
		<path d="M19.6,6.6c-2-1.4-5-2.1-9.1-2.1c-3.6,0-6.6,0.2-9,0.5v26.1h6.3c0-0.5,0-9.7,0-9.7l0.3,0c0.6,0.1,1.4,0.1,2.3,0.1
			c4.1,0,7.5-1,9.6-2.8c1.7-1.5,2.7-3.7,2.7-6.2C22.7,10.2,21.6,8,19.6,6.6z M10.3,17.4c-1.1,0-1.8,0-2.3-0.2l-0.2,0V8.9L8,8.8
			c0.3-0.1,1.2-0.2,2.9-0.2c3.5,0,5.6,1.6,5.6,4.2C16.4,15.6,14.1,17.4,10.3,17.4z M38.3,4.2c-8.5,0-14.4,5.7-14.4,13.9
			c0,8.1,5.6,13.5,13.9,13.5c8.9,0,14.6-5.5,14.6-13.9C52.4,10.9,48.1,4.2,38.3,4.2z M38.2,27.2c-4.6,0-7.6-3.6-7.6-9.2
			c0-5.6,3-9.4,7.5-9.4c4.4,0,7.5,3.8,7.5,9.2C45.7,23.5,42.7,27.2,38.2,27.2z M71.5,19.8L71.5,19.8l0-0.4l0.2-0.1
			c2.1-0.7,4.7-2.8,4.7-6.5c0-2.6-1.1-5.1-2.7-6.3c-2-1.4-5-2.1-9.6-2.1c-3.2,0-6.4,0.2-8.9,0.5v26.1h6.3c0-0.5,0-10.6,0-10.6h3.8
			c0,0,8,10.4,8.1,10.6h6.9C78.8,29.3,72.6,21.3,71.5,19.8z M64.3,16.6h-2.9V8.7l0.2,0c0.8-0.1,1.9-0.2,3.1-0.2c3.4,0,5.2,1.5,5.2,4
			C70,15,67.8,16.6,64.3,16.6z M99.8,4.7c0,0.4,0,4.2,0,4.6c-0.5,0-8.2,0-8.2,0s0,21.3,0,21.8c-0.4,0-5.9,0-6.4,0
			c0-0.5,0-21.8,0-21.8s-7.6,0-8.1,0c0-0.4,0-4.2,0-4.6C77.6,4.7,99.4,4.7,99.8,4.7z M113.5,4.2C105,4.2,99,9.9,99,18.1
			c0,8.1,5.6,13.5,13.9,13.5c8.8,0,14.6-5.5,14.6-13.9C127.5,10.9,123.2,4.2,113.5,4.2z M113.3,27.2c-4.6,0-7.6-3.6-7.6-9.2
			c0-5.6,3-9.4,7.5-9.4c4.4,0,7.5,3.8,7.5,9.2C120.8,23.5,117.9,27.2,113.3,27.2z"/>
	</g>
</g>
</svg>
